<?xml version="1.0" standalone="no"?><!DOCTYPE svg PUBLIC "-//W3C//DTD SVG 1.1//EN" "http://www.w3.org/Graphics/SVG/1.1/DTD/svg11.dtd"><svg t="1506740197339" class="icon" style="" viewBox="0 0 1025 1024" version="1.1" xmlns="http://www.w3.org/2000/svg" p-id="567" xmlns:xlink="http://www.w3.org/1999/xlink" width="128.125" height="128"><defs><style type="text/css"></style></defs><path d="M269.072 711.586c-4.684-2.742-9.828-4.114-15.254-4.114-10.972 0-21.2 5.944-26.688 15.43-4.054 7.028-5.14 15.312-3.028 23.2 2.114 7.882 7.2 14.512 14.344 18.626 14.398 8.456 33.71 2.97 41.882-11.202C288.788 738.9 283.76 720.042 269.072 711.586z" p-id="568" fill="#1296db"></path><path d="M773.798 767.586c16.912 0 30.684-13.828 30.684-30.742s-13.772-30.628-30.684-30.628c-16.914 0-30.686 13.714-30.686 30.628S756.884 767.586 773.798 767.586z" p-id="569" fill="#1296db"></path><path d="M525.92 312.458c14.688-8.458 19.714-27.284 11.258-41.97-5.484-9.458-15.656-15.314-26.628-15.314-5.426 0-10.57 1.372-15.312 4.142-7.086 4.086-12.172 10.686-14.286 18.6s-1.028 16.17 3.086 23.256C492.208 315.374 511.464 320.716 525.92 312.458z" p-id="570" fill="#1296db"></path><path d="M773.798 855.354c65.31 0 118.452-53.142 118.452-118.51 0-65.254-53.14-118.394-118.452-118.394-49.77 0-92.34 30.968-109.826 74.51L417.754 692.96l0 43.884c0 91.024-73.998 165.024-164.966 165.024-90.966 0-165.022-74-165.022-165.024 0-90.968 74.054-164.908 165.022-164.908l0-87.796c-139.366 0-252.79 113.396-252.79 252.706 0 139.422 113.424 252.792 252.79 252.792 124.396 0 228.108-90.34 248.906-208.908l162.28 0C681.458 824.382 724.03 855.354 773.798 855.354zM773.798 706.214c16.912 0 30.684 13.714 30.684 30.628s-13.772 30.742-30.684 30.742c-16.914 0-30.686-13.828-30.686-30.742S756.884 706.214 773.798 706.214z" p-id="571" fill="#1296db"></path><path d="M351.7 480.654l-81.37 140.996c-46.226-5.542-95.31 16.114-119.196 57.312-15.828 27.426-20 59.368-11.828 89.88 8.228 30.57 27.828 56.112 55.2 71.884 17.998 10.398 38.456 15.882 59.198 15.882 42.226 0 81.54-22.626 102.624-59.198 24.914-43.084 19.372-95.424-9.656-132.394l123.196-213.134-38.114-22c-38.168-22.056-65.482-57.626-76.91-100.196-11.372-42.57-5.542-87.054 16.514-125.224 45.484-78.826 146.624-105.768 225.42-60.398 78.74 45.484 105.824 146.594 60.34 225.392l75.998 43.884c69.712-120.68 28.228-275.59-92.454-345.272-120.794-69.684-275.646-28.2-345.302 92.51-33.77 58.456-42.74 126.596-25.254 191.822C283.702 403.256 312.158 447.596 351.7 480.654zM280.33 753.528c-8.172 14.172-27.484 19.656-41.882 11.202-7.144-4.116-12.23-10.744-14.344-18.626-2.114-7.886-1.028-16.172 3.028-23.2 5.488-9.486 15.714-15.43 26.688-15.43 5.426 0 10.57 1.372 15.254 4.114C283.76 720.042 288.788 738.9 280.33 753.528z" p-id="572" fill="#1296db"></path><path d="M836.538 492.91c-50.796-13.542-103.48-11.17-151.938 6.6l-81.082-140.452c28.97-36.942 34.514-89.254 9.656-132.424-31.426-54.426-107.024-74.968-161.82-43.34-27.43 15.828-47.028 41.37-55.2 71.94s-3.942 62.484 11.886 89.826c21.028 36.57 60.396 59.284 102.624 59.284 5.542 0 10.914-1.372 16.4-2.172l123.48 213.992 38.054-21.944c38.172-22.054 82.57-27.998 125.254-16.512 42.57 11.372 78.112 38.684 100.168 76.854 22.054 38.17 27.882 82.626 16.512 125.252-11.426 42.514-38.74 78.114-76.91 100.168-78.796 45.372-179.878 18.344-225.42-60.454l-75.998 43.94c46.798 81.026 131.996 126.282 219.422 126.282 42.796 0 86.224-10.856 125.878-33.77 58.514-33.772 100.34-88.284 117.77-153.48 17.484-65.198 8.512-133.31-25.258-191.822C956.304 552.222 901.792 510.394 836.538 492.91zM484.038 301.174c-4.114-7.084-5.2-15.342-3.086-23.256s7.2-14.514 14.286-18.6c4.742-2.772 9.886-4.142 15.312-4.142 10.972 0 21.144 5.856 26.628 15.314 8.458 14.686 3.43 33.512-11.258 41.97C511.464 320.716 492.208 315.374 484.038 301.174z" p-id="573" fill="#1296db"></path></svg>